<?xml version="1.0" encoding="iso-8859-1"?>
<!-- Uploaded to: SVG Repo, www.svgrepo.com, Generator: SVG Repo Mixer Tools -->
<!DOCTYPE svg PUBLIC "-//W3C//DTD SVG 1.1//EN" "http://www.w3.org/Graphics/SVG/1.1/DTD/svg11.dtd">
<svg fill="#000000" version="1.1" id="Capa_1" xmlns="http://www.w3.org/2000/svg" xmlns:xlink="http://www.w3.org/1999/xlink" 
	 width="800px" height="800px" viewBox="0 0 27.332 27.332"
	 xml:space="preserve">
<g>
	<path d="M5.666,13.666c0-1.104,0.896-2,2-2h4v-4c0-1.104,0.896-2,2-2c1.104,0,2,0.896,2,2v4h4c1.104,0,2,0.896,2,2
		c0,1.104-0.896,2-2,2h-4v4c0,1.104-0.896,2-2,2c-1.104,0-2-0.896-2-2v-4h-4C6.562,15.666,5.666,14.77,5.666,13.666z M27.332,1.5
		v24.332c0,0.829-0.673,1.5-1.5,1.5H1.5c-0.828,0-1.5-0.671-1.5-1.5V1.5C0,0.671,0.672,0,1.5,0h24.332
		C26.659,0,27.332,0.671,27.332,1.5z M24.332,3H3v21.332h21.332V3z"/>
</g>
</svg>